<?xml version="1.0" encoding="UTF-8"?>
<svg width="60px" height="60px" viewBox="0 0 60 60" version="1.1" xmlns="http://www.w3.org/2000/svg" xmlns:xlink="http://www.w3.org/1999/xlink">
    <!-- Generator: Sketch 46.2 (44496) - http://www.bohemiancoding.com/sketch -->
    <title>owl</title>
    <desc>Created with Sketch.</desc>
    <defs></defs>
    <g id="Page-1" stroke="none" stroke-width="1" fill="none" fill-rule="evenodd">
        <g id="owl" transform="translate(1.000000, 1.000000)">
            <path d="M56,49.9997 L0,49.9997 L0,53.9997 L56,53.9997 C57.105,53.9997 58,53.1037 58,51.9997 C58,50.8947 57.105,49.9997 56,49.9997" id="Shape" fill="#FFE000" fill-rule="nonzero"></path>
            <path d="M31,8.9443 C30.995,8.9443 30.991,8.9453 30.986,8.9463 C30.99,8.9633 30.996,8.9803 31,8.9973 L31,8.9993 C31.004,8.9813 31.01,8.9643 31.014,8.9463 C31.009,8.9453 31.005,8.9443 31,8.9443" id="Shape" fill="#FFE100" fill-rule="nonzero"></path>
            <path d="M19.3553,53.9997 C23.7383,56.8237 28.5283,57.9997 31.0003,57.9997 L31.0003,57.9997 C33.4693,57.9997 38.2603,56.8237 42.6423,53.9997 L19.3553,53.9997 Z" id="Shape" fill="#6B39BD" fill-rule="nonzero"></path>
            <path d="M31,8.9997 C30.73,8.9777 30.85,8.9597 30.986,8.9457 C30.985,8.9447 30.985,8.9437 30.985,8.9427 C30.99,8.9437 30.995,8.9437 31,8.9447 C31.005,8.9437 31.01,8.9437 31.015,8.9427 C31.015,8.9437 31.015,8.9447 31.014,8.9457 C31.15,8.9597 31.27,8.9777 31,8.9997 L31,8.9997 Z M46.51,4.1137 L41.144,-0.0003 L35.161,3.3487 C33.047,4.5307 31.544,6.5607 31.021,8.9227 L31,8.9227 L30.979,8.9227 C30.456,6.5617 28.955,4.5337 26.843,3.3517 L20.857,-0.0003 L15.498,4.1047 C8.688,9.3197 5.28,17.8317 6.573,26.3117 C6.8,27.8017 7.012,29.3017 7.135,30.7897 C7.254,32.2287 10,36.1947 10,36.9997 C10,42.3097 11.927,46.9087 14.656,49.9997 L47.343,49.9997 C50.072,46.9087 52,42.3097 52,36.9997 C52,36.1947 54.747,32.2297 54.865,30.7917 C54.989,29.3037 55.2,27.8037 55.427,26.3127 C56.719,17.8377 53.314,9.3297 46.51,4.1137 L46.51,4.1137 L46.51,4.1137 Z" id="Shape" fill="#A06AF3" fill-rule="nonzero"></path>
            <path d="M31.7285,22.7282 L30.9995,22.0002 L30.2715,22.7282 C29.4925,24.6572 28.1305,26.2872 26.4025,27.4022 L30.9995,32.0002 L35.5975,27.4022 C33.8695,26.2872 32.5075,24.6572 31.7285,22.7282" id="Shape" fill="#6B39BD" fill-rule="nonzero"></path>
            <g id="path-1-link" transform="translate(31.000000, 8.999700)" fill-rule="nonzero" fill="#6B39BD">
                <path d="M10,20 C4.486,20 0,15.514 0,10 C0,4.486 4.486,0 10,0 C15.514,0 20,4.486 20,10 C20,15.514 15.514,20 10,20" id="path-1"></path>
            </g>
            <g id="path-1-link" transform="translate(11.000000, 8.999700)" fill-rule="nonzero" fill="#6B39BD">
                <path d="M10,20 C4.486,20 0,15.514 0,10 C0,4.486 4.486,0 10,0 C15.514,0 20,4.486 20,10 C20,15.514 15.514,20 10,20" id="path-1"></path>
            </g>
            <g id="path-2-link" transform="translate(35.000000, 12.999700)" fill-rule="nonzero" fill="#FFE100">
                <path d="M12,6 C12,9.314 9.314,12 6,12 C2.686,12 0,9.314 0,6 C0,2.686 2.686,0 6,0 C9.314,0 12,2.686 12,6" id="path-2"></path>
            </g>
            <g id="path-2-link" transform="translate(15.000000, 12.999700)" fill-rule="nonzero" fill="#FFE100">
                <path d="M12,6 C12,9.314 9.314,12 6,12 C2.686,12 0,9.314 0,6 C0,2.686 2.686,0 6,0 C9.314,0 12,2.686 12,6" id="path-2"></path>
            </g>
            <g id="path-3-link" stroke-linejoin="round" transform="translate(31.000000, 8.999700)" stroke="#000000" stroke-width="2">
                <path d="M10,20 C4.486,20 0,15.514 0,10 C0,4.486 4.486,0 10,0 C15.514,0 20,4.486 20,10 C20,15.514 15.514,20 10,20 L10,20 Z" id="path-3"></path>
            </g>
            <g id="path-4-link" stroke-linejoin="round" transform="translate(35.000000, 12.999700)" stroke="#000000" stroke-width="2">
                <path d="M12,6 C12,9.314 9.314,12 6,12 C2.686,12 0,9.314 0,6 C0,2.686 2.686,0 6,0 C9.314,0 12,2.686 12,6 L12,6 Z" id="path-4"></path>
            </g>
            <g id="path-5-link" transform="translate(38.000000, 15.999700)" fill-rule="nonzero" fill="#000000">
                <path d="M3,6 C1.346,6 0,4.654 0,3 C0,1.346 1.346,0 3,0 C4.654,0 6,1.346 6,3 C6,4.654 4.654,6 3,6" id="path-5"></path>
            </g>
            <g id="path-3-link" stroke-linejoin="round" transform="translate(11.000000, 8.999700)" stroke="#000000" stroke-width="2">
                <path d="M10,20 C4.486,20 0,15.514 0,10 C0,4.486 4.486,0 10,0 C15.514,0 20,4.486 20,10 C20,15.514 15.514,20 10,20 L10,20 Z" id="path-3"></path>
            </g>
            <g id="path-4-link" stroke-linejoin="round" transform="translate(15.000000, 12.999700)" stroke="#000000" stroke-width="2">
                <path d="M12,6 C12,9.314 9.314,12 6,12 C2.686,12 0,9.314 0,6 C0,2.686 2.686,0 6,0 C9.314,0 12,2.686 12,6 L12,6 Z" id="path-4"></path>
            </g>
            <g id="path-5-link" transform="translate(18.000000, 15.999700)" fill-rule="nonzero" fill="#000000">
                <path d="M3,6 C1.346,6 0,4.654 0,3 C0,1.346 1.346,0 3,0 C4.654,0 6,1.346 6,3 C6,4.654 4.654,6 3,6" id="path-5"></path>
            </g>
            <path d="M31.7285,22.7282 L30.9995,22.0002 L30.2715,22.7282 C29.4925,24.6572 28.1305,26.2872 26.4025,27.4022 L30.9995,32.0002 L35.5975,27.4022 C33.8695,26.2872 32.5075,24.6572 31.7285,22.7282 L31.7285,22.7282 Z" id="Shape" stroke="#000000" stroke-width="2" stroke-linejoin="round"></path>
            <path d="M56,49.9997 L0,49.9997 L0,53.9997 L56,53.9997 C57.105,53.9997 58,53.1037 58,51.9997 C58,50.8947 57.105,49.9997 56,49.9997 L56,49.9997 Z" id="Shape" stroke="#000000" stroke-width="2" stroke-linejoin="round"></path>
            <g id="path-6-link" stroke-linejoin="round" transform="translate(20.000000, 44.999700)" stroke="#000000" stroke-width="2">
                <path d="M0,0 L0,7" id="path-6"></path>
            </g>
            <path d="M31,8.9443 C30.995,8.9443 30.991,8.9453 30.986,8.9463 C30.99,8.9633 30.996,8.9803 31,8.9973 L31,8.9993 C31.004,8.9813 31.01,8.9643 31.014,8.9463 C31.009,8.9453 31.005,8.9443 31,8.9443 L31,8.9443 Z" id="Shape" stroke="#000000" stroke-width="2" stroke-linejoin="round"></path>
            <path d="M19.3553,53.9997 C23.7383,56.8237 28.5283,57.9997 31.0003,57.9997 L31.0003,57.9997 C33.4693,57.9997 38.2603,56.8237 42.6423,53.9997 L19.3553,53.9997 L19.3553,53.9997 Z" id="Shape" stroke="#000000" stroke-width="2" stroke-linejoin="round"></path>
            <path d="M31,8.9997 C30.73,8.9777 30.85,8.9597 30.986,8.9457 C30.985,8.9447 30.985,8.9437 30.985,8.9427 C30.99,8.9437 30.995,8.9437 31,8.9447 C31.005,8.9437 31.01,8.9437 31.015,8.9427 C31.015,8.9437 31.015,8.9447 31.014,8.9457 C31.15,8.9597 31.27,8.9777 31,8.9997 L31,8.9997 L31,8.9997 Z M41.144,-0.0003 L35.161,3.3487 C33.047,4.5307 31.544,6.5607 31.021,8.9227 C30.456,6.5617 28.955,4.5337 26.843,3.3517 L20.857,-0.0003 L15.498,4.1047 C8.688,9.3197 5.28,17.8317 6.573,26.3117 C6.8,27.8017 7.012,29.3017 7.135,30.7897 C7.254,32.2287 10,36.1947 10,36.9997 C10,42.3097 11.927,46.9087 14.656,49.9997 L47.343,49.9997 C50.072,46.9087 52,42.3097 52,36.9997 C52,36.1947 54.747,32.2297 54.865,30.7917 C54.989,29.3037 55.2,27.8037 55.427,26.3127 C56.719,17.8377 53.314,9.3297 46.51,4.1137 L41.144,-0.0003 Z" id="Shape" stroke="#000000" stroke-width="2" stroke-linejoin="round"></path>
            <g id="path-7-link" stroke-linejoin="round" transform="translate(23.000000, 47.999700)" stroke="#000000" stroke-width="2">
                <path d="M0,0 L0,4" id="path-7"></path>
            </g>
            <g id="path-8-link" stroke-linejoin="round" transform="translate(17.000000, 47.999700)" stroke="#000000" stroke-width="2">
                <path d="M0,4 L0,0" id="path-8"></path>
            </g>
            <g id="path-6-link" stroke-linejoin="round" transform="translate(42.000000, 44.999700)" stroke="#000000" stroke-width="2">
                <path d="M0,0 L0,7" id="path-6"></path>
            </g>
            <g id="path-7-link" stroke-linejoin="round" transform="translate(45.000000, 47.999700)" stroke="#000000" stroke-width="2">
                <path d="M0,0 L0,4" id="path-7"></path>
            </g>
            <g id="path-8-link" stroke-linejoin="round" transform="translate(39.000000, 47.999700)" stroke="#000000" stroke-width="2">
                <path d="M0,4 L0,0" id="path-8"></path>
            </g>
            <path d="M11.7295,15.446 C12.4795,13.511 11.6105,11.362 9.7925,10.445 C6.9245,15.113 5.7195,20.716 6.5725,26.311 C6.8005,27.802 7.0115,29.302 7.1345,30.79 C7.2535,32.229 10.0705,36.68 10.0555,37 C11.4095,37.84 12.9205,37.606 14.5925,38.116 C20.6295,39.957 24.4115,43.88 26.0495,50 L35.9505,50 C37.5885,43.88 41.3705,39.957 47.4075,38.116 C49.0795,37.606 50.6455,36.84 52.0005,36 C51.9855,35.68 54.7465,32.23 54.8655,30.791 C54.9885,29.303 55.1995,27.804 55.4275,26.313 C56.2795,20.72 55.0755,15.119 52.2105,10.453 C50.3995,11.367 49.5295,13.512 50.2705,15.446" id="Shape" stroke="#000000" stroke-width="2" stroke-linejoin="round"></path>
            <path d="M31.8248,50.0225 C33.7778,41.4285 39.0658,36.4785 46.2398,34.2905 C60.2748,30.0095 53.9998,13.9995 53.9998,13.9995" id="Shape" stroke="#000000" stroke-width="2" stroke-linejoin="round"></path>
            <path d="M8,13.9997 C8,13.9997 1.725,30.0097 15.76,34.2897 C22.934,36.4787 28.221,41.4277 30.175,50.0207" id="Shape" stroke="#000000" stroke-width="2" stroke-linejoin="round"></path>
            <g id="path-9-link" stroke-linejoin="round" transform="translate(34.000000, 32.999700)" stroke="#000000" stroke-width="2">
                <path d="M0,2 C0,0.895 0.895,0 2,0 C3.105,0 4,0.895 4,2" id="path-9"></path>
            </g>
            <g id="path-9-link" stroke-linejoin="round" transform="translate(29.000000, 37.999700)" stroke="#000000" stroke-width="2">
                <path d="M0,2 C0,0.895 0.895,0 2,0 C3.105,0 4,0.895 4,2" id="path-9"></path>
            </g>
            <g id="path-9-link" stroke-linejoin="round" transform="translate(24.000000, 32.999700)" stroke="#000000" stroke-width="2">
                <path d="M0,2 C0,0.895 0.895,0 2,0 C3.105,0 4,0.895 4,2" id="path-9"></path>
            </g>
        </g>
    </g>
</svg>